# xmcd
#
# Track frame offsets: 
#        150
#        16855
#        31265
#        44747
#        59141
#        72013
#        84976
#        97108
#        109640
#        122493
#
# Disc length: 1835 seconds
#
# Revision: 0
# Processed by: cddbd v1.5PL3 Copyright (c) Steve Scherf et al.
# Submitted via: ExactAudioCopy v0.95a5
#
DISCID=8007290a
DTITLE=Various Artist - Delta Blues
DYEAR=2002
DGENRE=Blues
TTITLE0=Tommy Johnson - Canned Heat Blues
TTITLE1=Charley Patton - High Sheriff Blues
TTITLE2=Arthur "Big Boy" Crudup - Rock Me Mamma
TTITLE3=Son House - My Black Mama (Part 1)
TTITLE4=Tommy McClennan - Bottle It Up and Go
TTITLE5=Skip James - Hard Time Killin' Floor Blues
TTITLE6=Robert Johnson - Phonograph Blues
TTITLE7=Muddy Waters - Hard Day Blues
TTITLE8=Big Joe Williams - Please Don't Go
TTITLE9=Mississippi John Hurt - Frankie
EXTD=Legendary Blues CRG 120049
EXTT0=
EXTT1=
EXTT2=
EXTT3=
EXTT4=
EXTT5=
EXTT6=
EXTT7=
EXTT8=
EXTT9=
PLAYORDER=
